<svg width="90" height="90" viewBox="0 0 90 90" fill="none" xmlns="http://www.w3.org/2000/svg">
<g clip-path="url(#clip0)">
<path d="M82.2326 75.9113L75.7939 65.1788C72.8202 60.2251 71.2489 54.5513 71.2489 48.7763V39.375C71.2489 27.5063 63.3289 17.4676 52.4988 14.2312V7.50006C52.4988 3.36375 49.135 0 44.9987 0C40.8624 0 37.4987 3.36375 37.4987 7.50006V14.2312C26.6688 17.4676 18.7488 27.5063 18.7488 39.375V48.7763C18.7488 54.5513 17.1775 60.2212 14.2075 65.1751L7.7688 75.9076C7.42005 76.4889 7.41249 77.2089 7.7463 77.7976C8.08011 78.3863 8.69886 78.7502 9.37386 78.7502H80.6238C81.2988 78.7502 81.9212 78.3865 82.2551 77.8015C82.5889 77.2163 82.5776 76.4888 82.2326 75.9113Z" fill="#576A8F"/>
<path d="M33.1904 82.5007C35.3054 86.9183 39.7829 90.0008 44.9991 90.0008C50.2152 90.0008 54.6929 86.9183 56.8079 82.5007H33.1904Z" fill="#576A8F"/>
</g>
<defs>
<clipPath id="clip0">
<rect width="90" height="90" fill="white"/>
</clipPath>
</defs>
</svg>
