<svg width="24" height="18" viewBox="0 0 24 18" fill="none" xmlns="http://www.w3.org/2000/svg">
<path d="M22.725 2.5125L18 5.175V1.5C18 1.10218 17.842 0.720644 17.5607 0.43934C17.2794 0.158035 16.8978 0 16.5 0H3C2.20435 0 1.44129 0.31607 0.87868 0.87868C0.316071 1.44129 0 2.20435 0 3V15C0 15.7956 0.316071 16.5587 0.87868 17.1213C1.44129 17.6839 2.20435 18 3 18H16.5C16.8978 18 17.2794 17.842 17.5607 17.5607C17.842 17.2794 18 16.8978 18 16.5V12.81L22.725 15.4725C22.8462 15.5517 22.9862 15.5976 23.1307 15.6056C23.2753 15.6136 23.4195 15.5834 23.5487 15.518C23.6779 15.4527 23.7876 15.3544 23.8668 15.2332C23.9461 15.112 23.992 14.9721 24 14.8275V3.15C23.9908 3.00606 23.9439 2.86706 23.8642 2.74686C23.7845 2.62666 23.6747 2.52946 23.5456 2.46496C23.4166 2.40045 23.273 2.3709 23.129 2.37924C22.985 2.38758 22.8457 2.43353 22.725 2.5125Z" fill="white"/>
</svg>
