<svg width="4" height="12" viewBox="0 0 4 12" fill="none" xmlns="http://www.w3.org/2000/svg">
<path d="M3.0864 3.92206L0.177759 4.28659L0.0736078 4.76925L0.645173 4.87467C1.0186 4.96358 1.09227 5.09821 1.01098 5.47037L0.0736078 9.87523C-0.172801 11.0146 0.206973 11.5506 1.09989 11.5506C1.79212 11.5506 2.59612 11.2305 2.96065 10.791L3.07242 10.2626C2.81839 10.4862 2.44751 10.5751 2.2011 10.5751C1.85181 10.5751 1.7248 10.3299 1.81498 9.8981L3.0864 3.92206Z" fill="#576A8F"/>
<path d="M1.90516 2.54029C2.60664 2.54029 3.1753 1.97163 3.1753 1.27015C3.1753 0.568664 2.60664 0 1.90516 0C1.20367 0 0.63501 0.568664 0.63501 1.27015C0.63501 1.97163 1.20367 2.54029 1.90516 2.54029Z" fill="#576A8F"/>
</svg>
