<svg width="24" height="24" viewBox="0 0 24 24" fill="none" xmlns="http://www.w3.org/2000/svg">
<g clip-path="url(#clip0)">
<path d="M17.4993 23.9991C13.9153 23.9991 10.9993 21.0831 10.9993 17.4991C10.9993 13.9151 13.9153 10.9991 17.4993 10.9991C21.0832 10.9991 23.9992 13.9151 23.9992 17.4991C23.9992 21.0831 21.0832 23.9991 17.4993 23.9991ZM17.4993 11.9991C14.4663 11.9991 11.9993 14.4671 11.9993 17.4991C11.9993 20.5311 14.4663 22.9991 17.4993 22.9991C20.5322 22.9991 22.9992 20.5311 22.9992 17.4991C22.9992 14.4671 20.5322 11.9991 17.4993 11.9991Z" fill="white"/>
<path d="M17.5 20.0009C17.224 20.0009 17 19.7769 17 19.5009V19.2379C17 18.2769 17.505 17.3559 18.386 16.7119C18.776 16.4259 19 15.9839 19 15.5009C19 14.6739 18.327 14.0009 17.5 14.0009C16.673 14.0009 16 14.6739 16 15.5009C16 15.7769 15.776 16.0009 15.5 16.0009C15.224 16.0009 15 15.7769 15 15.5009C15 14.1219 16.122 13.0009 17.5 13.0009C18.878 13.0009 20 14.1219 20 15.5009C20 16.2939 19.618 17.0489 18.977 17.5189C18.612 17.7859 18 18.3639 18 19.2379V19.5009C18 19.7769 17.776 20.0009 17.5 20.0009Z" fill="white"/>
<path d="M17.4993 22.0013C17.3693 22.0013 17.2393 21.9513 17.1493 21.8513C17.0493 21.7613 16.9993 21.6313 16.9993 21.5013C16.9993 21.4313 17.0093 21.3713 17.0393 21.3113C17.0593 21.2513 17.0993 21.1913 17.1493 21.1513C17.1893 21.1013 17.2493 21.0613 17.3093 21.0423C17.4893 20.9623 17.7093 21.0123 17.8493 21.1513C17.9493 21.2413 17.9993 21.3713 17.9993 21.5013C17.9993 21.5613 17.9893 21.6313 17.9593 21.6903C17.9393 21.7513 17.8993 21.8103 17.8493 21.8503C17.7593 21.9513 17.6293 22.0013 17.4993 22.0013Z" fill="white"/>
<path d="M9.5 21H2.5C1.122 21 0 19.879 0 18.5V5.5C0 4.121 1.122 3 2.5 3H4.5C4.776 3 5 3.224 5 3.5C5 3.776 4.776 4 4.5 4H2.5C1.673 4 1 4.673 1 5.5V18.5C1 19.327 1.673 20 2.5 20H9.5C9.776 20 10 20.224 10 20.5C10 20.776 9.776 21 9.5 21Z" fill="white"/>
<path d="M11.5007 6H5.50073C4.67373 6 4.00073 5.327 4.00073 4.5V2.5C4.00073 2.224 4.22473 2 4.50073 2H6.05073C6.28373 0.86 7.29273 0 8.50073 0C9.70873 0 10.7177 0.86 10.9507 2H12.5007C12.7767 2 13.0007 2.224 13.0007 2.5V4.5C13.0007 5.327 12.3277 6 11.5007 6ZM5.00073 3V4.5C5.00073 4.775 5.22473 5 5.50073 5H11.5007C11.7767 5 12.0007 4.775 12.0007 4.5V3H10.5007C10.2247 3 10.0007 2.776 10.0007 2.5C10.0007 1.673 9.32773 1 8.50073 1C7.67373 1 7.00073 1.673 7.00073 2.5C7.00073 2.776 6.77673 3 6.50073 3H5.00073Z" fill="white"/>
<path d="M13.5 8.99915H3.5C3.224 8.99915 3 8.77515 3 8.49915C3 8.22315 3.224 7.99915 3.5 7.99915H13.5C13.776 7.99915 14 8.22315 14 8.49915C14 8.77515 13.776 8.99915 13.5 8.99915Z" fill="white"/>
<path d="M10.5 11.9991H3.5C3.224 11.9991 3 11.7751 3 11.4991C3 11.2231 3.224 10.9991 3.5 10.9991H10.5C10.776 10.9991 11 11.2231 11 11.4991C11 11.7751 10.776 11.9991 10.5 11.9991Z" fill="white"/>
<path d="M8.5 14.9991H3.5C3.224 14.9991 3 14.7751 3 14.4991C3 14.2231 3.224 13.9991 3.5 13.9991H8.5C8.776 13.9991 9 14.2231 9 14.4991C9 14.7751 8.776 14.9991 8.5 14.9991Z" fill="white"/>
<path d="M16.5 9C16.224 9 16 8.776 16 8.5V5.5C16 4.673 15.327 4 14.5 4H12.5C12.224 4 12 3.776 12 3.5C12 3.224 12.224 3 12.5 3H14.5C15.878 3 17 4.121 17 5.5V8.5C17 8.776 16.776 9 16.5 9Z" fill="white"/>
</g>
<defs>
<clipPath id="clip0">
<rect width="24" height="24" fill="white"/>
</clipPath>
</defs>
</svg>
