<svg width="17" height="15" viewBox="0 0 17 15" fill="none" xmlns="http://www.w3.org/2000/svg">
<path d="M8.49978 11C10.002 11 11.2198 9.80608 11.2198 8.33332C11.2198 6.86056 10.002 5.66666 8.49978 5.66666C6.99757 5.66666 5.77979 6.86056 5.77979 8.33332C5.77979 9.80608 6.99757 11 8.49978 11Z" fill="#576A8F"/>
<path d="M5.95 0L4.3945 1.66667H1.7C0.765 1.66667 0 2.41667 0 3.33333V13.3333C0 14.25 0.765 15 1.7 15H15.3C16.235 15 17 14.25 17 13.3333V3.33333C17 2.41667 16.235 1.66667 15.3 1.66667H12.6055L11.05 0H5.95ZM8.5 12.5C6.154 12.5 4.25 10.6333 4.25 8.33333C4.25 6.03333 6.154 4.16667 8.5 4.16667C10.846 4.16667 12.75 6.03333 12.75 8.33333C12.75 10.6333 10.846 12.5 8.5 12.5Z" fill="#576A8F"/>
</svg>
