<svg width="22" height="22" viewBox="0 0 22 22" fill="none" xmlns="http://www.w3.org/2000/svg">
<path d="M10.997 7.33177C8.97722 7.33177 7.32888 8.98013 7.32888 11C7.32888 13.0199 8.97722 14.6682 10.997 14.6682C13.0169 14.6682 14.6652 13.0199 14.6652 11C14.6652 8.98013 13.0169 7.33177 10.997 7.33177ZM21.9988 11C21.9988 9.48097 22.0125 7.97571 21.9272 6.45943C21.8419 4.69824 21.4402 3.13519 20.1523 1.84732C18.8617 0.556694 17.3014 0.157674 15.5403 0.0723668C14.0213 -0.0129408 12.516 0.000818524 10.9998 0.000818524C9.4808 0.000818524 7.97556 -0.0129408 6.45931 0.0723668C4.69815 0.157674 3.13513 0.559446 1.84728 1.84732C0.556684 3.13794 0.157672 4.69824 0.0723655 6.45943C-0.0129406 7.97846 0.000818509 9.48373 0.000818509 11C0.000818509 12.5163 -0.0129406 14.0243 0.0723655 15.5406C0.157672 17.3018 0.559436 18.8648 1.84728 20.1527C3.13788 21.4433 4.69815 21.8423 6.45931 21.9276C7.97831 22.0129 9.48355 21.9992 10.9998 21.9992C12.5188 21.9992 14.024 22.0129 15.5403 21.9276C17.3014 21.8423 18.8645 21.4406 20.1523 20.1527C21.4429 18.8621 21.8419 17.3018 21.9272 15.5406C22.0153 14.0243 21.9988 12.519 21.9988 11ZM10.997 16.6441C7.87374 16.6441 5.35309 14.1234 5.35309 11C5.35309 7.87664 7.87374 5.35594 10.997 5.35594C14.1203 5.35594 16.641 7.87664 16.641 11C16.641 14.1234 14.1203 16.6441 10.997 16.6441ZM16.8722 6.44292C16.1429 6.44292 15.554 5.85402 15.554 5.12478C15.554 4.39554 16.1429 3.80664 16.8722 3.80664C17.6014 3.80664 18.1903 4.39554 18.1903 5.12478C18.1905 5.29794 18.1565 5.46945 18.0904 5.62947C18.0242 5.78949 17.9271 5.93489 17.8047 6.05733C17.6822 6.17978 17.5369 6.27686 17.3768 6.34303C17.2168 6.40919 17.0453 6.44314 16.8722 6.44292Z" fill="white"/>
</svg>
