<svg width="26" height="8" viewBox="0 0 26 8" fill="none" xmlns="http://www.w3.org/2000/svg">
<path d="M25.8539 4.38057C25.9489 4.27586 26 4.13491 26 3.99799C26 3.86106 25.9525 3.72011 25.8539 3.6154L22.7195 0.160081C22.5259 -0.05336 22.2154 -0.05336 22.0218 0.160081C21.8281 0.373522 21.8281 0.715832 22.0218 0.929273L24.3159 3.45432L0.493172 3.6154C0.219188 3.6154 -1.81095e-07 3.85704 -1.67892e-07 4.15907C-1.5469e-07 4.46111 0.219188 4.70274 0.493172 4.70274L24.3159 4.54166L22.0218 7.07073C21.8281 7.28417 21.8281 7.62648 22.0218 7.83992C22.2154 8.05336 22.5259 8.05336 22.7195 7.83992L25.8539 4.38057Z" fill="#576A8F"/>
</svg>
