<svg width="196" height="85" viewBox="0 0 196 85" fill="none" xmlns="http://www.w3.org/2000/svg">
<g clip-path="url(#clip0)">
<path fill-rule="evenodd" clip-rule="evenodd" d="M155.986 0H195.736V39.8222H155.986V0Z" fill="#7498CF"/>
<path fill-rule="evenodd" clip-rule="evenodd" d="M153.355 42.1217H192.685V81.9438H86.8429V42.8839H3.97821V3.05518H153.355V42.1217Z" fill="#576A8F"/>
<path fill-rule="evenodd" clip-rule="evenodd" d="M0.265991 45.1805H84.1868V85.0027H0.265991V45.1805Z" fill="#7498CF"/>
<path d="M112.598 68.3499C112.066 69.5985 111.509 70.7419 110.938 71.7801C110.354 72.8184 109.731 73.7121 109.042 74.4547C108.354 75.1906 107.593 75.7755 106.76 76.1895C105.927 76.6035 104.982 76.8138 103.933 76.8138C103.329 76.8138 102.759 76.7546 102.24 76.6298C101.716 76.5181 101.27 76.3735 100.902 76.2092V73.9618C101.355 74.2312 101.86 74.4481 102.418 74.6189C102.975 74.7832 103.48 74.8687 103.933 74.8687C104.74 74.8687 105.454 74.7109 106.065 74.3955C106.675 74.0801 107.232 73.6332 107.75 73.0484C108.262 72.4701 108.741 71.7538 109.187 70.9259C109.639 70.1044 110.099 69.1713 110.577 68.1462L100.607 46.0928H102.942L110.472 63.1783C110.558 63.3426 110.643 63.5463 110.741 63.7697C110.846 63.9865 110.945 64.2297 111.05 64.486C111.155 64.7357 111.26 64.992 111.365 65.2417C111.469 65.4914 111.561 65.7214 111.647 65.9382H111.732C111.896 65.4585 112.086 65.0051 112.276 64.578C112.473 64.1508 112.637 63.7763 112.762 63.4477L119.997 46.0928H122.181L112.598 68.3499ZM139.544 76.2946V66.9042C138.186 67.6271 136.887 68.1856 135.654 68.5865C134.421 68.9807 133.174 69.1713 131.895 69.1713C130.971 69.1713 130.111 69.0399 129.331 68.7639C128.544 68.4945 127.861 68.0608 127.278 67.4693C126.7 66.8779 126.248 66.1091 125.913 65.1694C125.585 64.2297 125.421 63.0928 125.421 61.7589V54.721H127.356V61.588C127.356 62.4291 127.428 63.2046 127.579 63.9208C127.724 64.6305 127.979 65.2417 128.334 65.7542C128.694 66.2602 129.18 66.6676 129.79 66.9568C130.4 67.2525 131.167 67.4036 132.092 67.4036C133.457 67.4036 134.749 67.2065 135.982 66.7925C137.222 66.3851 138.409 65.8594 139.544 65.2088V54.721H141.485V76.2946H139.544ZM148.845 65.5965C148.845 68.5536 149.527 70.8733 150.891 72.5424C152.262 74.2049 154.138 75.0395 156.513 75.0395C158.92 75.0395 161.275 74.1524 163.571 72.365V74.4284C161.347 76.0186 158.861 76.8138 156.113 76.8138C153.338 76.8138 151.095 75.8084 149.383 73.8172C147.677 71.8261 146.825 69.0136 146.825 65.3797C146.825 62.232 147.717 59.5903 149.507 57.4349C151.291 55.2795 153.614 54.2018 156.473 54.2018C159.15 54.2018 161.203 55.1481 162.633 57.0209C164.063 58.9069 164.778 61.4763 164.778 64.7291V65.5965H148.845ZM162.757 63.8223C162.679 61.3449 162.082 59.4129 160.967 58.0329C159.865 56.6661 158.336 55.9761 156.388 55.9761C154.368 55.9761 152.702 56.6464 151.37 58.0066C150.045 59.3603 149.232 61.2989 148.924 63.8223H162.757ZM175.627 56.4887V76.2946H173.685V56.4887H167.224V54.721H182.081V56.4887H175.627Z" fill="white"/>
<path d="M34.355 29.0794C34.355 30.2754 34.1583 31.3991 33.7647 32.4505C33.3711 33.5019 32.7939 34.4219 32.033 35.217C31.2656 36.0121 30.321 36.643 29.1928 37.0964C28.0646 37.5695 26.7724 37.7995 25.3162 37.7995H16.9989V7.59775H32.1576V9.49686H19.0651V21.0164H25.9C27.0938 21.0164 28.2023 21.1675 29.2387 21.4698C30.262 21.7721 31.1606 22.2452 31.9149 22.8892C32.6758 23.5332 33.2727 24.3678 33.6991 25.3863C34.1386 26.3983 34.355 27.6271 34.355 29.0794ZM32.2036 29.2502C32.2036 28.1134 32.0396 27.1408 31.7182 26.3457C31.3968 25.544 30.9179 24.8935 30.2817 24.3875C29.652 23.8815 28.8779 23.5069 27.9531 23.2703C27.0282 23.0338 25.959 22.9155 24.7521 22.9155H19.0651V35.9004H24.8702C26.1624 35.9004 27.2775 35.7361 28.2023 35.3944C29.1272 35.0593 29.8815 34.5927 30.4784 34.0079C31.0688 33.4165 31.4951 32.7133 31.7772 31.8985C32.0592 31.0902 32.2036 30.2031 32.2036 29.2502ZM54.6432 37.7995V19.7613C54.5317 19.9124 54.4202 20.0767 54.3218 20.2212C54.2103 20.379 54.125 20.5038 54.0529 20.5827L41.1178 37.7995H39.7468V16.2259H41.6819V34.0867C41.7671 33.929 41.8459 33.7845 41.9311 33.6399C42.0164 33.5019 42.1148 33.377 42.2066 33.2653L55.0237 16.2259H56.5848V37.7995H54.6432ZM77.7585 31.7868C77.7585 32.6213 77.6011 33.423 77.2862 34.2116C76.9714 34.9936 76.4532 35.6967 75.7447 36.3013C75.0298 36.9124 74.0852 37.3987 72.9177 37.7667C71.7435 38.1347 70.307 38.3121 68.595 38.3121C68.0243 38.3121 67.4209 38.2792 66.7846 38.2069C66.1549 38.1412 65.5383 38.0427 64.9283 37.9112C64.3183 37.793 63.7476 37.6418 63.2032 37.4578C62.6653 37.287 62.2062 37.0898 61.8257 36.8861V34.8621C62.3177 35.1316 62.849 35.3681 63.4131 35.5784C63.9838 35.7887 64.561 35.9661 65.1579 36.0976C65.7548 36.2421 66.3451 36.3538 66.9289 36.4327C67.5193 36.5115 68.0834 36.5444 68.6344 36.5444C70.0381 36.5444 71.1925 36.4195 72.1108 36.1633C73.0292 35.9136 73.7573 35.585 74.2951 35.1644C74.8396 34.7504 75.2134 34.2773 75.4233 33.7187C75.6267 33.1733 75.7382 32.6082 75.7382 32.0168C75.7382 31.1625 75.5742 30.4397 75.2397 29.8679C74.9117 29.2897 74.446 28.8297 73.836 28.4814C73.2325 28.1265 72.4847 27.8834 71.6123 27.7388C70.7399 27.6008 69.7691 27.5286 68.6803 27.5286H65.7482V25.7609H68.4179C70.5169 25.7609 72.0846 25.4126 73.121 24.7357C74.1443 24.0392 74.6624 22.9615 74.6624 21.4895C74.6624 20.9047 74.5444 20.3658 74.3214 19.873C74.0983 19.3801 73.7573 18.9596 73.2915 18.5981C72.8324 18.2499 72.242 17.9673 71.5271 17.7701C70.8121 17.5796 69.9594 17.4744 68.982 17.4744C67.8013 17.4744 66.6272 17.6256 65.4596 17.9344C64.2855 18.2499 63.2163 18.6244 62.2521 19.0778V17.1853C62.6522 17.0144 63.1179 16.8436 63.6361 16.6662C64.1543 16.4953 64.7119 16.331 65.3088 16.193C65.9057 16.055 66.5288 15.9368 67.1913 15.8448C67.8407 15.7528 68.5229 15.7068 69.2247 15.7068C70.5825 15.7068 71.737 15.8645 72.6815 16.1799C73.6261 16.5019 74.3935 16.9159 74.9904 17.435C75.5873 17.9541 76.0202 18.5456 76.2826 19.2093C76.5516 19.8795 76.6827 20.5564 76.6827 21.2464C76.6827 22.6329 76.2957 23.7829 75.5152 24.6963C74.7412 25.6097 73.6326 26.1946 72.2027 26.4443V26.5297C73.0882 26.5691 73.8688 26.7334 74.5575 27.016C75.2462 27.3051 75.83 27.6863 76.3023 28.1463C76.7877 28.6128 77.1419 29.1517 77.3977 29.7825C77.6404 30.4068 77.7585 31.0771 77.7585 31.7868ZM97.7843 37.7995V27.4891H85.0853V37.7995H83.1437V16.2259H85.0853V25.7149H97.7843V16.2259H99.7259V37.7995H97.7843ZM107.085 27.0948C107.085 30.0585 107.768 32.3782 109.132 34.0407C110.503 35.7098 112.379 36.5444 114.753 36.5444C117.161 36.5444 119.516 35.6573 121.818 33.8699V35.9333C119.588 37.5235 117.102 38.3121 114.353 38.3121C111.579 38.3121 109.335 37.3132 107.623 35.3221C105.918 33.331 105.065 30.5185 105.065 26.8846C105.065 23.7435 105.957 21.0952 107.748 18.9398C109.532 16.7844 111.854 15.7068 114.714 15.7068C117.397 15.7068 119.45 16.653 120.873 18.5259C122.303 20.4118 123.018 22.9812 123.018 26.234V27.0948H107.085ZM120.998 25.3272C120.919 22.8498 120.322 20.9112 119.207 19.5444C118.105 18.171 116.577 17.4744 114.629 17.4744C112.608 17.4744 110.942 18.1513 109.611 19.5115C108.286 20.8652 107.472 22.8038 107.164 25.3272H120.998ZM142.309 36.8401C140.715 37.8258 138.807 38.3121 136.583 38.3121C133.658 38.3121 131.29 37.3067 129.492 35.2959C127.702 33.2785 126.803 30.6434 126.803 27.3906C126.803 23.9603 127.813 21.1675 129.833 18.9793C131.854 16.8042 134.445 15.7068 137.619 15.7068C139.253 15.7068 140.847 16.0485 142.395 16.7253V18.907C140.847 17.9541 139.161 17.4744 137.324 17.4744C134.799 17.4744 132.752 18.3813 131.185 20.2015C129.61 22.0218 128.83 24.3743 128.83 27.2657C128.83 30.0519 129.545 32.3059 130.981 34.0013C132.424 35.6967 134.32 36.5444 136.675 36.5444C138.833 36.5444 140.715 35.9727 142.309 34.8227V36.8401Z" fill="white"/>
<path d="M190.435 34.7996L187.824 32.6245C186.014 34.2607 183.856 35.0821 181.35 35.0821C179.448 35.0821 177.965 34.6681 176.903 33.8336C175.833 32.999 175.302 31.9345 175.302 30.6399C175.302 28.5174 176.798 26.8877 179.789 25.7508C178.333 24.3183 177.605 23.004 177.605 21.8081C177.605 20.7435 178.044 19.8367 178.93 19.0941C179.822 18.3515 180.969 17.9836 182.373 17.9836C183.659 17.9836 184.676 18.299 185.417 18.9232C186.151 19.5475 186.525 20.3492 186.525 21.3152C186.525 22.3732 186.151 23.2669 185.404 24.016C184.656 24.752 183.475 25.4354 181.868 26.0597C183.219 27.282 185.213 28.9511 187.831 31.067C188.959 29.6411 189.556 27.972 189.634 26.0597H190.933C190.868 28.11 190.12 30.0222 188.683 31.803C190.225 33.0976 191.451 34.0964 192.37 34.8258L190.435 34.7996ZM181.002 25.304C182.583 24.7126 183.672 24.1212 184.295 23.5297C184.912 22.9318 185.22 22.2483 185.22 21.4532C185.22 20.6909 184.938 20.0864 184.367 19.633C183.797 19.1795 183.095 18.9495 182.255 18.9495C181.232 18.9495 180.419 19.2321 179.815 19.7841C179.212 20.3427 178.903 21.0261 178.903 21.8343C178.903 22.8135 179.605 23.9766 181.002 25.304ZM186.998 31.9147C184 29.4439 181.888 27.6434 180.648 26.5066C177.952 27.512 176.601 28.8591 176.601 30.5611C176.601 31.5993 177.034 32.4536 177.9 33.1173C178.759 33.781 179.946 34.1161 181.448 34.1161C183.515 34.1161 185.364 33.3802 186.998 31.9147Z" fill="white"/>
</g>
<defs>
<clipPath id="clip0">
<rect width="196" height="85" fill="white"/>
</clipPath>
</defs>
</svg>
