<svg width="17" height="18" viewBox="0 0 17 18" fill="none" xmlns="http://www.w3.org/2000/svg">
<path d="M15.5833 7.92855H14.0781V2.92855C14.0781 1.35043 12.8098 0.0714111 11.2448 0.0714111H5.75522C4.19024 0.0714111 2.92189 1.35043 2.92189 2.92855V7.92855H1.41668C1.02488 7.92855 0.708344 8.24775 0.708344 8.64284V17.2143C0.708344 17.6094 1.02488 17.9286 1.41668 17.9286H15.5833C15.9751 17.9286 16.2917 17.6094 16.2917 17.2143V8.64284C16.2917 8.24775 15.9751 7.92855 15.5833 7.92855ZM4.51564 2.92855C4.51564 2.23882 5.07123 1.67855 5.75522 1.67855H11.2448C11.9288 1.67855 12.4844 2.23882 12.4844 2.92855V7.92855H4.51564V2.92855ZM14.6979 16.3214H2.30209V9.5357H14.6979V16.3214ZM7.88022 13.2187V14.4018C7.88022 14.5 7.95991 14.5803 8.0573 14.5803H8.94272C9.04011 14.5803 9.1198 14.5 9.1198 14.4018V13.2187C9.30252 13.0864 9.43891 12.8991 9.50932 12.6837C9.57973 12.4682 9.58055 12.2358 9.51164 12.0199C9.44273 11.804 9.30766 11.6157 9.12587 11.4821C8.94408 11.3485 8.72495 11.2766 8.50001 11.2766C8.27507 11.2766 8.05594 11.3485 7.87415 11.4821C7.69236 11.6157 7.55728 11.804 7.48838 12.0199C7.41947 12.2358 7.42029 12.4682 7.4907 12.6837C7.56111 12.8991 7.6975 13.0864 7.88022 13.2187Z" fill="#576A8F"/>
</svg>
