<svg width="24" height="24" viewBox="0 0 24 24" fill="none" xmlns="http://www.w3.org/2000/svg">
<path d="M9.9761 14.0152C11.4472 15.5391 13.2273 16.7157 15.1912 17.4623L17.848 15.3034C17.9268 15.248 18.0202 15.2183 18.1158 15.2183C18.2115 15.2183 18.3048 15.248 18.3836 15.3034L23.3168 18.5489C23.5041 18.6639 23.6626 18.8218 23.7799 19.0101C23.8971 19.1984 23.9699 19.4119 23.9925 19.6339C24.015 19.8559 23.9867 20.0801 23.9098 20.289C23.8329 20.4979 23.7095 20.6856 23.5493 20.8374L21.2378 23.1691C20.9068 23.5031 20.4999 23.7482 20.0535 23.8825C19.6071 24.0169 19.1351 24.0363 18.6796 23.9391C14.1356 22.9807 9.94731 20.7363 6.59337 17.4623C3.31386 14.1557 1.04446 9.94838 0.0604563 5.35069C-0.0367507 4.89273 -0.0164623 4.4169 0.119355 3.96931C0.255173 3.52172 0.501914 3.11754 0.835667 2.79595L3.23177 0.43552C3.38005 0.279924 3.56087 0.160598 3.76071 0.0864768C3.96055 0.0123557 4.17422 -0.01464 4.38572 0.00751122C4.59722 0.0296625 4.80107 0.100387 4.98201 0.214388C5.16295 0.328389 5.31629 0.482714 5.43055 0.665806L8.71463 5.63854C8.77127 5.71663 8.80185 5.81123 8.80185 5.90841C8.80185 6.00559 8.77127 6.10019 8.71463 6.17828L6.55108 8.83376C7.30204 10.7991 8.47201 12.569 9.9761 14.0152Z" fill="white"/>
</svg>
