<svg width="17" height="18" viewBox="0 0 17 18" fill="none" xmlns="http://www.w3.org/2000/svg">
<path d="M16.17 14.616C15.7524 13.6186 15.1465 12.7127 14.3859 11.9486C13.6276 11.1823 12.7293 10.5714 11.7407 10.1495C11.7318 10.145 11.723 10.1428 11.7141 10.1383C13.0932 9.13388 13.9896 7.49772 13.9896 5.65174C13.9896 2.59371 11.5326 0.116028 8.50007 0.116028C5.46751 0.116028 3.01048 2.59371 3.01048 5.65174C3.01048 7.49772 3.90697 9.13388 5.286 10.1406C5.27715 10.145 5.2683 10.1473 5.25944 10.1517C4.26777 10.5736 3.37793 11.1785 2.61426 11.9508C1.85437 12.7155 1.24851 13.6213 0.830144 14.6183C0.419138 15.5943 0.197473 16.6407 0.177149 17.7008C0.176558 17.7247 0.180702 17.7484 0.189336 17.7706C0.197971 17.7927 0.210921 17.813 0.227424 17.83C0.243927 17.8471 0.263648 17.8606 0.285427 17.8699C0.307205 17.8791 0.3306 17.8839 0.354232 17.8839H1.68236C1.77975 17.8839 1.85723 17.8058 1.85944 17.7098C1.90371 15.9866 2.58991 14.3727 3.80293 13.1495C5.05801 11.8839 6.72481 11.1875 8.50007 11.1875C10.2753 11.1875 11.9421 11.8839 13.1972 13.1495C14.4102 14.3727 15.0964 15.9866 15.1407 17.7098C15.1429 17.808 15.2204 17.8839 15.3178 17.8839H16.6459C16.6695 17.8839 16.6929 17.8791 16.7147 17.8699C16.7365 17.8606 16.7562 17.8471 16.7727 17.83C16.7892 17.813 16.8022 17.7927 16.8108 17.7706C16.8194 17.7484 16.8236 17.7247 16.823 17.7008C16.8008 16.6339 16.5817 15.5959 16.17 14.616ZM8.50007 9.49103C7.48405 9.49103 6.5278 9.09147 5.8084 8.36603C5.089 7.64058 4.69277 6.6763 4.69277 5.65174C4.69277 4.62719 5.089 3.6629 5.8084 2.93746C6.5278 2.21201 7.48405 1.81246 8.50007 1.81246C9.51608 1.81246 10.4723 2.21201 11.1917 2.93746C11.9111 3.6629 12.3074 4.62719 12.3074 5.65174C12.3074 6.6763 11.9111 7.64058 11.1917 8.36603C10.4723 9.09147 9.51608 9.49103 8.50007 9.49103Z" fill="#576A8F"/>
</svg>
