<svg width="18" height="18" viewBox="0 0 18 18" fill="none" xmlns="http://www.w3.org/2000/svg">
<path d="M8.42376 17.9998C8.77862 17.992 9.11915 17.8639 9.38513 17.6382C9.6511 17.4125 9.82538 17.1038 9.87713 16.7666H6.91406C6.96728 17.1129 7.14971 17.4289 7.42742 17.6558C7.70512 17.8826 8.05919 18.0049 8.42376 17.9998Z" fill="#B5B5B5"/>
<path d="M16.787 14.6733L16.5954 14.5111C16.0521 14.0462 15.5765 13.5131 15.1815 12.9262C14.7501 12.1163 14.4916 11.2317 14.421 10.3245V7.65248C14.4187 7.32792 14.3886 7.00409 14.3309 6.68428C13.3767 6.49595 12.5196 5.9968 11.9047 5.27133C11.2898 4.54586 10.9548 3.63864 10.9566 2.70326V2.3625C10.3684 2.08458 9.73653 1.90182 9.08637 1.8216V1.14007C9.08637 0.948555 9.00713 0.764887 8.8661 0.629467C8.72507 0.494047 8.53378 0.417969 8.33433 0.417969C8.13488 0.417969 7.9436 0.494047 7.80256 0.629467C7.66153 0.764887 7.5823 0.948555 7.5823 1.14007V1.84864C6.12652 2.04583 4.79418 2.74207 3.83127 3.80882C2.86836 4.87558 2.33988 6.24081 2.34341 7.65248V10.3245C2.27286 11.2317 2.01431 12.1163 1.58293 12.9262C1.19474 13.5117 0.726794 14.0447 0.191529 14.5111L0 14.6733V16.1987H16.787V14.6733Z" fill="#B5B5B5"/>
<path d="M15.1831 5.40898C16.7386 5.40898 17.9997 4.19814 17.9997 2.70449C17.9997 1.21084 16.7386 0 15.1831 0C13.6275 0 12.3665 1.21084 12.3665 2.70449C12.3665 4.19814 13.6275 5.40898 15.1831 5.40898Z" fill="#FD397A"/>
</svg>
