<svg width="13" height="15" viewBox="0 0 13 15" fill="none" xmlns="http://www.w3.org/2000/svg">
<path d="M12.9597 3.35278L12.6082 2.36C12.4744 1.98189 12.1003 1.72783 11.6774 1.72783H8.72374V0.821571C8.72374 0.368614 8.33296 0 7.85243 0H5.14757C4.66717 0 4.27626 0.368614 4.27626 0.821571V1.72783H1.3227C0.899736 1.72783 0.525592 1.98189 0.39177 2.36L0.0403338 3.35278C-0.0396925 3.5788 0.000867159 3.82908 0.148655 4.02237C0.296442 4.21566 0.53555 4.33113 0.78838 4.33113H1.15572L1.96424 13.7532C2.02436 14.4523 2.65388 15 3.39767 15H9.76639C10.5101 15 11.1397 14.4523 11.1997 13.7531L12.0082 4.33113H12.2116C12.4645 4.33113 12.7036 4.21566 12.8513 4.02248C12.9991 3.82919 13.0397 3.5788 12.9597 3.35278ZM5.20889 0.878906H7.79111V1.72783H5.20889V0.878906ZM10.2701 13.6822C10.249 13.9284 10.0277 14.1211 9.76639 14.1211H3.39767C3.13634 14.1211 2.91509 13.9284 2.89396 13.6822L2.09139 4.33113H11.0726L10.2701 13.6822ZM0.988385 3.45222L1.27655 2.63809C1.28311 2.61932 1.30169 2.60674 1.3227 2.60674H11.6774C11.6984 2.60674 11.7169 2.61932 11.7236 2.63809L12.0117 3.45222H0.988385Z" fill="#FD397A"/>
<path d="M8.7824 13.6511C8.79065 13.6515 8.79879 13.6516 8.80705 13.6516C9.05344 13.6516 9.2594 13.4697 9.27227 13.2351L9.71018 5.31323C9.72353 5.07085 9.52583 4.86405 9.26875 4.85146C9.01094 4.83853 8.79223 5.02507 8.77875 5.26746L8.34097 13.1893C8.32761 13.4317 8.52519 13.6385 8.7824 13.6511Z" fill="#FD397A"/>
<path d="M3.74781 13.2365C3.76141 13.4708 3.96712 13.652 4.21303 13.652C4.22153 13.652 4.23027 13.6518 4.2389 13.6514C4.49598 13.6382 4.69306 13.4311 4.6791 13.1887L4.22044 5.26684C4.20647 5.02445 3.98668 4.83871 3.72948 4.85199C3.4724 4.86515 3.27531 5.07229 3.28927 5.31467L3.74781 13.2365Z" fill="#FD397A"/>
<path d="M6.50489 13.6516C6.76245 13.6516 6.9712 13.4548 6.9712 13.2121V5.29028C6.9712 5.04755 6.76245 4.85083 6.50489 4.85083C6.24732 4.85083 6.03857 5.04755 6.03857 5.29028V13.2121C6.03857 13.4548 6.24732 13.6516 6.50489 13.6516Z" fill="#FD397A"/>
</svg>
