<svg width="20" height="20" viewBox="0 0 20 20" fill="none" xmlns="http://www.w3.org/2000/svg">
<circle cx="10" cy="10" r="10" fill="white"/>
<path d="M11.0864 7.92206L8.17776 8.28659L8.07361 8.76925L8.64517 8.87467C9.0186 8.96358 9.09227 9.09821 9.01098 9.47037L8.07361 13.8752C7.8272 15.0146 8.20697 15.5506 9.09989 15.5506C9.79212 15.5506 10.5961 15.2305 10.9607 14.791L11.0724 14.2626C10.8184 14.4862 10.4475 14.5751 10.2011 14.5751C9.85181 14.5751 9.7248 14.3299 9.81498 13.8981L11.0864 7.92206Z" fill="#576A8F"/>
<path d="M9.90516 6.54029C10.6066 6.54029 11.1753 5.97163 11.1753 5.27015C11.1753 4.56866 10.6066 4 9.90516 4C9.20367 4 8.63501 4.56866 8.63501 5.27015C8.63501 5.97163 9.20367 6.54029 9.90516 6.54029Z" fill="#576A8F"/>
</svg>
