<svg width="32" height="32" viewBox="0 0 32 32" fill="none" xmlns="http://www.w3.org/2000/svg">
<g clip-path="url(#clip0)">
<path d="M23.3307 31.9974C18.5521 31.9974 14.6641 28.1094 14.6641 23.3307C14.6641 18.5521 18.5521 14.6641 23.3307 14.6641C28.1094 14.6641 31.9974 18.5521 31.9974 23.3307C31.9974 28.1094 28.1094 31.9974 23.3307 31.9974ZM23.3307 15.9974C19.2867 15.9974 15.9974 19.2881 15.9974 23.3307C15.9974 27.3734 19.2867 30.664 23.3307 30.664C27.3747 30.664 30.664 27.3734 30.664 23.3307C30.664 19.2881 27.3747 15.9974 23.3307 15.9974Z" fill="#576A8F"/>
<path d="M23.3333 26.6693C22.9653 26.6693 22.6667 26.3706 22.6667 26.0026V25.6519C22.6667 24.3706 23.34 23.1426 24.5147 22.2839C25.0347 21.9026 25.3333 21.3133 25.3333 20.6693C25.3333 19.5666 24.436 18.6693 23.3333 18.6693C22.2307 18.6693 21.3333 19.5666 21.3333 20.6693C21.3333 21.0373 21.0347 21.3359 20.6667 21.3359C20.2987 21.3359 20 21.0373 20 20.6693C20 18.8306 21.496 17.3359 23.3333 17.3359C25.1707 17.3359 26.6666 18.8306 26.6666 20.6693C26.6666 21.7266 26.1573 22.7333 25.3027 23.3599C24.816 23.7159 24 24.4866 24 25.6519V26.0026C24 26.3706 23.7013 26.6693 23.3333 26.6693Z" fill="#576A8F"/>
<path d="M23.3307 29.3335C23.1574 29.3335 22.9841 29.2669 22.8641 29.1335C22.7307 29.0135 22.6641 28.8402 22.6641 28.6669C22.6641 28.5735 22.6774 28.4935 22.7174 28.4135C22.7441 28.3335 22.7974 28.2535 22.8641 28.2002C22.9174 28.1335 22.9974 28.0802 23.0774 28.0549C23.3174 27.9482 23.6107 28.0149 23.7974 28.2002C23.9307 28.3202 23.9974 28.4935 23.9974 28.6669C23.9974 28.7469 23.9841 28.8402 23.9441 28.9189C23.9174 29.0002 23.8641 29.0789 23.7974 29.1322C23.6774 29.2669 23.5041 29.3335 23.3307 29.3335Z" fill="#576A8F"/>
<path d="M12.6667 28H3.33333C1.496 28 0 26.5053 0 24.6667V7.33333C0 5.49467 1.496 4 3.33333 4H6C6.368 4 6.66667 4.29867 6.66667 4.66667C6.66667 5.03467 6.368 5.33333 6 5.33333H3.33333C2.23067 5.33333 1.33333 6.23067 1.33333 7.33333V24.6667C1.33333 25.7693 2.23067 26.6667 3.33333 26.6667H12.6667C13.0347 26.6667 13.3333 26.9653 13.3333 27.3333C13.3333 27.7013 13.0347 28 12.6667 28Z" fill="#576A8F"/>
<path d="M15.3359 8H7.33594C6.23327 8 5.33594 7.10267 5.33594 6V3.33333C5.33594 2.96533 5.6346 2.66667 6.0026 2.66667H8.06927C8.37994 1.14667 9.72527 0 11.3359 0C12.9466 0 14.2919 1.14667 14.6026 2.66667H16.6693C17.0373 2.66667 17.3359 2.96533 17.3359 3.33333V6C17.3359 7.10267 16.4386 8 15.3359 8ZM6.66927 4V6C6.66927 6.36667 6.96794 6.66667 7.33594 6.66667H15.3359C15.7039 6.66667 16.0026 6.36667 16.0026 6V4H14.0026C13.6346 4 13.3359 3.70133 13.3359 3.33333C13.3359 2.23067 12.4386 1.33333 11.3359 1.33333C10.2333 1.33333 9.33594 2.23067 9.33594 3.33333C9.33594 3.70133 9.03727 4 8.66927 4H6.66927Z" fill="#576A8F"/>
<path d="M18 11.9974H4.66667C4.29867 11.9974 4 11.6987 4 11.3307C4 10.9627 4.29867 10.6641 4.66667 10.6641H18C18.368 10.6641 18.6666 10.9627 18.6666 11.3307C18.6666 11.6987 18.368 11.9974 18 11.9974Z" fill="#576A8F"/>
<path d="M14 15.9974H4.66667C4.29867 15.9974 4 15.6987 4 15.3307C4 14.9627 4.29867 14.6641 4.66667 14.6641H14C14.368 14.6641 14.6667 14.9627 14.6667 15.3307C14.6667 15.6987 14.368 15.9974 14 15.9974Z" fill="#576A8F"/>
<path d="M11.3333 19.9974H4.66667C4.29867 19.9974 4 19.6987 4 19.3307C4 18.9627 4.29867 18.6641 4.66667 18.6641H11.3333C11.7013 18.6641 12 18.9627 12 19.3307C12 19.6987 11.7013 19.9974 11.3333 19.9974Z" fill="#576A8F"/>
<path d="M22 12C21.632 12 21.3333 11.7013 21.3333 11.3333V7.33333C21.3333 6.23067 20.436 5.33333 19.3333 5.33333H16.6667C16.2987 5.33333 16 5.03467 16 4.66667C16 4.29867 16.2987 4 16.6667 4H19.3333C21.1707 4 22.6666 5.49467 22.6666 7.33333V11.3333C22.6666 11.7013 22.368 12 22 12Z" fill="#576A8F"/>
</g>
<defs>
<clipPath id="clip0">
<rect width="32" height="32" fill="white"/>
</clipPath>
</defs>
</svg>
