<svg width="11" height="11" viewBox="0 0 11 11" fill="none" xmlns="http://www.w3.org/2000/svg">
<path d="M1.71586 9.75455L5.33542 6.13499L8.9552 9.75477C9.17616 9.97572 9.53439 9.97572 9.75535 9.75477C9.9763 9.53382 9.9763 9.17558 9.75535 8.95462L6.13557 5.33484L9.75455 1.71586C9.9755 1.49491 9.9755 1.13667 9.75455 0.915716C9.5336 0.694762 9.17536 0.694761 8.9544 0.915716L5.33542 4.5347L1.71666 0.915935C1.49571 0.694981 1.13747 0.694981 0.916515 0.915935C0.695561 1.13689 0.69556 1.49513 0.916515 1.71608L4.53528 5.33484L0.915716 8.9544C0.694761 9.17536 0.694762 9.5336 0.915716 9.75455C1.13667 9.9755 1.49491 9.9755 1.71586 9.75455Z" fill="#BEBEBE" stroke="white" stroke-width="0.5"/>
</svg>
