<svg width="15" height="15" viewBox="0 0 15 15" fill="none" xmlns="http://www.w3.org/2000/svg">
<g clip-path="url(#clip0)">
<path d="M13.8444 9.42385C13.6381 9.42385 13.4708 9.59108 13.4708 9.79743V13.1144C13.4701 13.7331 12.9688 14.2345 12.3501 14.2351H1.86789C1.24915 14.2345 0.747885 13.7331 0.747155 13.1144V3.37933C0.747885 2.76074 1.24915 2.25933 1.86789 2.2586H5.18485C5.39119 2.2586 5.55843 2.09137 5.55843 1.88502C5.55843 1.67882 5.39119 1.51144 5.18485 1.51144H1.86789C0.836756 1.51261 0.00116743 2.3482 0 3.37933V13.1145C0.00116743 14.1457 0.836756 14.9813 1.86789 14.9824H12.3501C13.3812 14.9813 14.2168 14.1457 14.218 13.1145V9.79743C14.218 9.59108 14.0508 9.42385 13.8444 9.42385Z" fill="#C7C7C7"/>
<path d="M14.0713 0.550994C13.4147 -0.10554 12.3503 -0.10554 11.6938 0.550994L5.02892 7.21585C4.98325 7.26153 4.95027 7.31815 4.93305 7.38032L4.0566 10.5445C4.02056 10.6742 4.05718 10.8131 4.15233 10.9084C4.24762 11.0036 4.38655 11.0402 4.51628 11.0043L7.68045 10.1277C7.74262 10.1105 7.79924 10.0775 7.84491 10.0318L14.5096 3.36684C15.1651 2.70986 15.1651 1.64634 14.5096 0.989364L14.0713 0.550994ZM5.84292 7.45868L11.2976 2.00386L13.0568 3.76303L7.60194 9.21785L5.84292 7.45868ZM5.49152 8.16381L6.89696 9.56939L4.9529 10.108L5.49152 8.16381ZM13.9814 2.83857L13.5852 3.23477L11.8259 1.47545L12.2222 1.07926C12.5869 0.71458 13.1782 0.71458 13.5429 1.07926L13.9814 1.51763C14.3455 1.88274 14.3455 2.47361 13.9814 2.83857Z" fill="#C7C7C7"/>
</g>
<defs>
<clipPath id="clip0">
<rect width="15" height="15" fill="white"/>
</clipPath>
</defs>
</svg>
