<svg width="22" height="28" viewBox="0 0 22 28" fill="none" xmlns="http://www.w3.org/2000/svg">
<path d="M0 0V28H9.42857V22.5556H12.5714V28H22V0H0ZM3.14286 3.11111H6.28571V6.22222H3.14286V3.11111ZM9.42857 3.11111H12.5714V6.22222H9.42857V3.11111ZM15.7143 3.11111H18.8571V6.22222H15.7143V3.11111ZM3.14286 9.33333H6.28571V12.4444H3.14286V9.33333ZM9.42857 9.33333H12.5714V12.4444H9.42857V9.33333ZM15.7143 9.33333H18.8571V12.4444H15.7143V9.33333ZM3.14286 15.5556H6.28571V18.6667H3.14286V15.5556ZM9.42857 15.5556H12.5714V18.6667H9.42857V15.5556ZM15.7143 15.5556H18.8571V18.6667H15.7143V15.5556ZM3.14286 21.7778H6.28571V24.8889H3.14286V21.7778ZM15.7143 21.7778H18.8571V24.8889H15.7143V21.7778Z" fill="white"/>
</svg>
