<svg width="5" height="19" viewBox="0 0 5 19" fill="none" xmlns="http://www.w3.org/2000/svg">
<path d="M4.86 6.1759L0.279909 6.74991L0.115907 7.50993L1.01592 7.67593C1.60393 7.81593 1.71994 8.02794 1.59193 8.61395L0.115907 15.5501C-0.272101 17.3441 0.325911 18.1881 1.73194 18.1881C2.82196 18.1881 4.08798 17.6841 4.66199 16.9921L4.838 16.1601C4.43799 16.5121 3.85398 16.6521 3.46597 16.6521C2.91596 16.6521 2.71596 16.2661 2.85796 15.5861L4.86 6.1759Z" fill="#B5B5B5"/>
<path d="M3.00004 4.00008C4.10463 4.00008 5.00008 3.10463 5.00008 2.00004C5.00008 0.895448 4.10463 0 3.00004 0C1.89545 0 1 0.895448 1 2.00004C1 3.10463 1.89545 4.00008 3.00004 4.00008Z" fill="#B5B5B5"/>
</svg>
