<svg width="15" height="15" viewBox="0 0 15 15" fill="none" xmlns="http://www.w3.org/2000/svg">
<path d="M1.61425 4.1261C2.50562 4.1261 3.22851 3.40015 3.22851 2.51185C3.22851 1.62355 2.50562 0.894531 1.61425 0.894531C0.722892 0.894531 0 1.62049 0 2.50879C0 3.39708 0.725955 4.1261 1.61425 4.1261ZM1.61425 1.64499C2.0921 1.64499 2.47805 2.034 2.47805 2.50879C2.47805 2.98357 2.08903 3.37258 1.61425 3.37258C1.13947 3.37258 0.750459 2.98357 0.750459 2.50879C0.750459 2.034 1.13947 1.64499 1.61425 1.64499Z" fill="#576A8F"/>
<path d="M1.61425 9.11132C2.50562 9.11132 3.22851 8.38536 3.22851 7.49707C3.22851 6.60877 2.50562 5.88281 1.61425 5.88281C0.722892 5.88281 0 6.6057 0 7.49707C0 8.38843 0.725955 9.11132 1.61425 9.11132ZM1.61425 6.63327C2.0921 6.63327 2.47805 7.02229 2.47805 7.49707C2.47805 7.97185 2.08903 8.36086 1.61425 8.36086C1.13947 8.36086 0.750459 7.97491 0.750459 7.49707C0.750459 7.01922 1.13947 6.63327 1.61425 6.63327Z" fill="#576A8F"/>
<path d="M1.61425 14.1035C2.50562 14.1035 3.22851 13.3776 3.22851 12.4893C3.22851 11.5979 2.50255 10.875 1.61425 10.875C0.725955 10.875 0 11.601 0 12.4893C0 13.3776 0.725955 14.1035 1.61425 14.1035ZM1.61425 11.6224C2.0921 11.6224 2.47805 12.0114 2.47805 12.4862C2.47805 12.964 2.08903 13.35 1.61425 13.35C1.13947 13.35 0.750459 12.961 0.750459 12.4862C0.750459 12.0114 1.13947 11.6224 1.61425 11.6224Z" fill="#576A8F"/>
<path d="M5.38457 2.88633H14.6198C14.8281 2.88633 14.9966 2.71786 14.9966 2.50957C14.9966 2.30128 14.8281 2.13281 14.6198 2.13281H5.38457C5.17628 2.13281 5.00781 2.30128 5.00781 2.50957C5.00781 2.71786 5.17628 2.88633 5.38457 2.88633Z" fill="#576A8F"/>
<path d="M5.38457 7.87461H14.6198C14.8281 7.87461 14.9966 7.70614 14.9966 7.49785C14.9966 7.28956 14.8281 7.12109 14.6198 7.12109H5.38457C5.17628 7.12109 5.00781 7.28956 5.00781 7.49785C5.00781 7.70614 5.17628 7.87461 5.38457 7.87461Z" fill="#576A8F"/>
<path d="M5.38457 12.859H14.6198C14.8281 12.859 14.9966 12.6905 14.9966 12.4822C14.9966 12.2739 14.8281 12.1055 14.6198 12.1055H5.38457C5.17628 12.1055 5.00781 12.2739 5.00781 12.4822C5.00781 12.6905 5.17628 12.859 5.38457 12.859Z" fill="#576A8F"/>
</svg>
