<svg width="118" height="51" viewBox="0 0 118 51" fill="none" xmlns="http://www.w3.org/2000/svg">
<path fill-rule="evenodd" clip-rule="evenodd" d="M93.9097 0H117.841V23.8933H93.9097V0Z" fill="#7498CF"/>
<path fill-rule="evenodd" clip-rule="evenodd" d="M92.3263 25.2737H116.005V49.167H52.2833V25.7311H2.39536V1.83383H92.3263V25.2737Z" fill="#576A8F"/>
<path fill-rule="evenodd" clip-rule="evenodd" d="M0.160126 27.1076H50.6839V51.0009H0.160126V27.1076Z" fill="#7498CF"/>
<path d="M67.7879 41.0096C67.468 41.7587 67.1324 42.4447 66.7888 43.0677C66.4373 43.6907 66.0622 44.2269 65.6475 44.6724C65.2329 45.114 64.7748 45.4649 64.2733 45.7133C63.7717 45.9617 63.2031 46.0879 62.5712 46.0879C62.2079 46.0879 61.8644 46.0524 61.5524 45.9775C61.2365 45.9105 60.9679 45.8237 60.7468 45.7251V44.3767C61.0193 44.5384 61.3234 44.6685 61.659 44.771C61.9947 44.8696 62.2988 44.9208 62.5712 44.9208C63.057 44.9208 63.4874 44.8262 63.8547 44.6369C64.2219 44.4477 64.5576 44.1796 64.8696 43.8287C65.1776 43.4817 65.4659 43.0519 65.7344 42.5551C66.0069 42.0623 66.2833 41.5024 66.5716 40.8873L60.5691 27.6553H61.9749L66.5084 37.9066C66.5597 38.0052 66.6111 38.1274 66.6703 38.2614C66.7335 38.3916 66.7927 38.5374 66.8559 38.6912C66.9191 38.841 66.9823 38.9948 67.0455 39.1446C67.1087 39.2945 67.164 39.4325 67.2153 39.5626H67.2666C67.3653 39.2747 67.4799 39.0027 67.5944 38.7464C67.7129 38.4901 67.8116 38.2654 67.8866 38.0682L72.2424 27.6553H73.5574L67.7879 41.0096ZM84.0105 45.7764V40.1422C83.193 40.5759 82.4111 40.911 81.6687 41.1515C80.9263 41.3881 80.176 41.5024 79.4059 41.5024C78.8491 41.5024 78.3318 41.4236 77.8618 41.258C77.388 41.0963 76.9773 40.8361 76.6258 40.4812C76.2783 40.1264 76.0058 39.6651 75.8044 39.1013C75.607 38.5374 75.5082 37.8553 75.5082 37.055V32.8322H76.6732V36.9524C76.6732 37.4571 76.7166 37.9224 76.8075 38.3521C76.8943 38.7779 77.0483 39.1446 77.2616 39.4522C77.4788 39.7558 77.771 40.0002 78.1383 40.1737C78.5055 40.3511 78.9676 40.4418 79.5244 40.4418C80.3458 40.4418 81.1237 40.3235 81.8661 40.0751C82.6125 39.8307 83.3273 39.5153 84.0105 39.1249V32.8322H85.1794V45.7764H84.0105ZM89.6102 39.3575C89.6102 41.1318 90.0209 42.5236 90.8423 43.5251C91.6676 44.5226 92.797 45.0233 94.2266 45.0233C95.6759 45.0233 97.0936 44.4911 98.4757 43.4186V44.6567C97.137 45.6108 95.6403 46.0879 93.9857 46.0879C92.3152 46.0879 90.9647 45.4846 89.934 44.29C88.9072 43.0953 88.3939 41.4078 88.3939 39.2274C88.3939 37.3388 88.9309 35.7538 90.009 34.4606C91.0832 33.1674 92.4811 32.5207 94.2029 32.5207C95.8141 32.5207 97.0501 33.0885 97.911 34.2122C98.7719 35.3438 99.2023 36.8854 99.2023 38.8371V39.3575H89.6102ZM97.986 38.293C97.9386 36.8066 97.5793 35.6474 96.908 34.8194C96.2445 33.9993 95.3244 33.5853 94.1515 33.5853C92.9352 33.5853 91.9322 33.9875 91.1305 34.8036C90.3328 35.6158 89.8432 36.779 89.6576 38.293H97.986ZM105.734 33.8928V45.7764H104.565V33.8928H100.675V32.8322H109.62V33.8928H105.734Z" fill="white"/>
<path d="M20.6829 17.4477C20.6829 18.1653 20.5644 18.8395 20.3275 19.4703C20.0906 20.1012 19.743 20.6532 19.285 21.1302C18.8229 21.6073 18.2543 21.9858 17.575 22.2579C16.8958 22.5418 16.1178 22.6798 15.2412 22.6798H10.2338V4.55869H19.36V5.69815H11.4778V12.6099H15.5926C16.3113 12.6099 16.9787 12.7005 17.6027 12.8819C18.2187 13.0633 18.7597 13.3472 19.2139 13.7336C19.672 14.12 20.0313 14.6207 20.288 15.2318C20.5526 15.839 20.6829 16.5763 20.6829 17.4477ZM19.3876 17.5502C19.3876 16.8681 19.2889 16.2845 19.0954 15.8075C18.9019 15.3264 18.6136 14.9361 18.2306 14.6325C17.8515 14.3289 17.3855 14.1042 16.8287 13.9622C16.2719 13.8203 15.6282 13.7493 14.9015 13.7493H11.4778V21.5403H14.9726C15.7506 21.5403 16.4219 21.4417 16.9787 21.2367C17.5355 21.0356 17.9897 20.7557 18.349 20.4048C18.7045 20.0499 18.9611 19.628 19.1309 19.1391C19.3008 18.6542 19.3876 18.1219 19.3876 17.5502ZM32.8972 22.6798V11.8568C32.8301 11.9475 32.763 12.046 32.7037 12.1328C32.6366 12.2274 32.5852 12.3023 32.5418 12.3496L24.7543 22.6798H23.929V9.73557H25.094V20.4521C25.1453 20.3574 25.1927 20.2707 25.244 20.184C25.2954 20.1012 25.3546 20.0263 25.4099 19.9592L33.1263 9.73557H34.0661V22.6798H32.8972ZM46.8136 19.0721C46.8136 19.5728 46.7188 20.0539 46.5292 20.527C46.3397 20.9962 46.0277 21.4181 45.6012 21.7808C45.1708 22.1475 44.6021 22.4392 43.8992 22.66C43.1923 22.8808 42.3275 22.9873 41.2968 22.9873C40.9532 22.9873 40.5899 22.9676 40.2069 22.9242C39.8277 22.8848 39.4565 22.8256 39.0893 22.7468C38.722 22.6758 38.3785 22.5851 38.0507 22.4747C37.7269 22.3722 37.4504 22.2539 37.2214 22.1317V20.9173C37.5176 21.079 37.8374 21.2209 38.1771 21.3471C38.5206 21.4733 38.8681 21.5797 39.2275 21.6586C39.5869 21.7453 39.9423 21.8123 40.2937 21.8597C40.6491 21.907 40.9888 21.9267 41.3205 21.9267C42.1656 21.9267 42.8606 21.8518 43.4135 21.698C43.9663 21.5482 44.4047 21.351 44.7285 21.0987C45.0562 20.8503 45.2813 20.5664 45.4077 20.2313C45.5301 19.904 45.5973 19.5649 45.5973 19.2101C45.5973 18.6975 45.4985 18.2638 45.2971 17.9208C45.0997 17.5738 44.8193 17.2978 44.452 17.0889C44.0887 16.876 43.6385 16.7301 43.1133 16.6433C42.5881 16.5605 42.0037 16.5172 41.3481 16.5172H39.5829V15.4566H41.1902C42.4538 15.4566 43.3977 15.2476 44.0216 14.8415C44.6376 14.4235 44.9496 13.7769 44.9496 12.8937C44.9496 12.5428 44.8785 12.2195 44.7443 11.9238C44.61 11.6281 44.4047 11.3758 44.1243 11.1589C43.8478 10.9499 43.4924 10.7804 43.062 10.6621C42.6315 10.5478 42.1182 10.4847 41.5298 10.4847C40.8189 10.4847 40.1121 10.5754 39.4091 10.7607C38.7023 10.9499 38.0586 11.1747 37.4781 11.4467V10.3112C37.719 10.2087 37.9993 10.1062 38.3113 9.99974C38.6233 9.89722 38.959 9.79865 39.3183 9.71586C39.6777 9.63306 40.0528 9.56209 40.4517 9.50689C40.8426 9.45169 41.2533 9.42409 41.6759 9.42409C42.4933 9.42409 43.1884 9.51872 43.757 9.70797C44.3257 9.90117 44.7877 10.1496 45.1471 10.461C45.5064 10.7725 45.7671 11.1274 45.925 11.5256C46.0869 11.9278 46.1659 12.3339 46.1659 12.7479C46.1659 13.5798 45.9329 14.2698 45.463 14.8178C44.997 15.3659 44.3296 15.7168 43.4687 15.8666V15.9179C44.0019 15.9415 44.4718 16.0401 44.8864 16.2096C45.3011 16.3831 45.6525 16.6118 45.9369 16.8878C46.2291 17.1677 46.4423 17.491 46.5964 17.8695C46.7425 18.2441 46.8136 18.6463 46.8136 19.0721ZM58.8699 22.6798V16.4935H51.2246V22.6798H50.0557V9.73557H51.2246V15.429H58.8699V9.73557H60.0388V22.6798H58.8699ZM64.4696 16.2569C64.4696 18.0351 64.8803 19.4269 65.7017 20.4245C66.5271 21.4259 67.6565 21.9267 69.086 21.9267C70.5353 21.9267 71.953 21.3944 73.3391 20.322V21.56C71.9964 22.5142 70.4998 22.9873 68.8451 22.9873C67.1747 22.9873 65.8241 22.388 64.7934 21.1933C63.7667 19.9987 63.2533 18.3111 63.2533 16.1308C63.2533 14.2461 63.7904 12.6572 64.8685 11.3639C65.9426 10.0707 67.3405 9.42409 69.0623 9.42409C70.6775 9.42409 71.9135 9.99185 72.7704 11.1155C73.6313 12.2471 74.0618 13.7888 74.0618 15.7404V16.2569H64.4696ZM72.8455 15.1963C72.7981 13.7099 72.4387 12.5468 71.7674 11.7267C71.104 10.9026 70.1838 10.4847 69.011 10.4847C67.7947 10.4847 66.7916 10.8908 65.99 11.707C65.1923 12.5192 64.7026 13.6823 64.517 15.1963H72.8455ZM85.6758 22.1041C84.7162 22.6955 83.5671 22.9873 82.2283 22.9873C80.4671 22.9873 79.0415 22.384 77.9595 21.1775C76.8814 19.9671 76.3404 18.3861 76.3404 16.4344C76.3404 14.3762 76.9485 12.7005 78.1648 11.3876C79.3811 10.0825 80.941 9.42409 82.8523 9.42409C83.8356 9.42409 84.7952 9.62911 85.7272 10.0352V11.3442C84.7952 10.7725 83.7803 10.4847 82.6746 10.4847C81.1542 10.4847 79.9221 11.0288 78.9783 12.121C78.0305 13.2131 77.5606 14.6246 77.5606 16.3595C77.5606 18.0312 77.9911 19.3836 78.8559 20.4008C79.7247 21.4181 80.8659 21.9267 82.2836 21.9267C83.5829 21.9267 84.7162 21.5837 85.6758 20.8937V22.1041Z" fill="white"/>
<path d="M114.649 20.8805L113.078 19.5754C111.988 20.5572 110.689 21.05 109.18 21.05C108.035 21.05 107.142 20.8016 106.503 20.3009C105.859 19.8001 105.539 19.1614 105.539 18.3847C105.539 17.1112 106.439 16.1333 108.24 15.4512C107.364 14.5917 106.925 13.8032 106.925 13.0856C106.925 12.4468 107.19 11.9027 107.723 11.4572C108.26 11.0117 108.951 10.7909 109.796 10.7909C110.57 10.7909 111.182 10.9801 111.628 11.3547C112.071 11.7292 112.296 12.2103 112.296 12.7899C112.296 13.4246 112.071 13.9609 111.621 14.4103C111.17 14.8519 110.46 15.262 109.492 15.6366C110.306 16.3699 111.506 17.3714 113.082 18.641C113.761 17.7854 114.12 16.7839 114.168 15.6366H114.95C114.91 16.8667 114.46 18.0141 113.595 19.0826C114.523 19.8593 115.262 20.4586 115.814 20.8962L114.649 20.8805ZM108.971 15.1831C109.922 14.8283 110.578 14.4734 110.953 14.1186C111.324 13.7598 111.51 13.3497 111.51 12.8727C111.51 12.4153 111.34 12.0526 110.997 11.7805C110.653 11.5085 110.231 11.3705 109.725 11.3705C109.109 11.3705 108.619 11.54 108.256 11.8712C107.893 12.2063 107.707 12.6164 107.707 13.1013C107.707 13.6888 108.13 14.3867 108.971 15.1831ZM112.58 19.1496C110.775 17.6671 109.504 16.5868 108.758 15.9047C107.134 16.5079 106.321 17.3162 106.321 18.3374C106.321 18.9603 106.582 19.4729 107.103 19.8711C107.62 20.2693 108.335 20.4704 109.239 20.4704C110.483 20.4704 111.597 20.0288 112.58 19.1496Z" fill="white"/>
</svg>
